<svg width="297" height="18" viewBox="0 0 297 18" fill="none" xmlns="http://www.w3.org/2000/svg">
<path d="M0.494194 13.9947L0.494095 12.4566L1.85638 12.1928L1.8558 3.00824L0.493476 2.74466L0.493377 1.19778L1.85568 1.1977L6.1799 1.19742C7.68576 1.19732 8.86058 1.49022 9.70437 2.0761C10.5482 2.66199 10.9701 3.53794 10.9702 4.70395C10.9702 5.29575 10.812 5.82603 10.4957 6.2948C10.1851 6.75771 9.73106 7.10637 9.13342 7.34079C9.64319 7.45208 10.068 7.64834 10.4079 7.92957C10.7536 8.2108 11.0114 8.55356 11.1814 8.95784C11.3513 9.35627 11.4363 9.79279 11.4363 10.2674C11.4364 11.492 11.0322 12.4207 10.2236 13.0536C9.41507 13.6806 8.26958 13.9942 6.78716 13.9943L0.494194 13.9947ZM4.42278 12.0257L6.78704 12.0255C7.46672 12.0255 7.98527 11.8789 8.34267 11.586C8.70008 11.2871 8.87876 10.8476 8.87872 10.2676C8.87869 9.84569 8.81129 9.4912 8.67651 9.2041C8.54172 8.917 8.3337 8.70021 8.05244 8.55375C7.77704 8.40728 7.41961 8.33406 6.98016 8.33409L4.42254 8.33425L4.42278 12.0257ZM4.42243 6.55886L6.26813 6.55874C6.95368 6.5587 7.48101 6.41804 7.85014 6.13677C8.21926 5.85549 8.4038 5.44533 8.40377 4.90626C8.40373 4.31447 8.2162 3.87795 7.84119 3.59673C7.47203 3.3155 6.91831 3.17491 6.18003 3.17496L4.42221 3.17507L4.42243 6.55886ZM16.7624 14.1782C15.7605 14.1783 14.9723 13.8619 14.3981 13.2291C13.8297 12.5905 13.5454 11.6003 13.5454 10.2585L13.5451 6.29461L12.4992 6.031L12.4991 4.48413L13.545 4.48406L16.1114 4.4839L16.1118 10.2759C16.1118 10.9556 16.229 11.4448 16.4634 11.7436C16.7037 12.0366 17.064 12.1831 17.5445 12.183C17.9254 12.183 18.2623 12.1097 18.5552 11.9632C18.8482 11.8109 19.0884 11.597 19.2759 11.3216L19.2756 6.29424L18.1418 6.03064L18.1417 4.48377L19.2755 4.48369L21.8419 4.48353L21.8424 12.1915L22.985 12.4551L22.9851 13.9932L19.5925 13.9934L19.4166 12.7893C19.1178 13.2347 18.7428 13.5775 18.2917 13.8177C17.8405 14.058 17.3308 14.1782 16.7624 14.1782ZM28.3812 14.1774C27.6722 14.1775 27.0101 14.1102 26.3949 13.9754C25.7855 13.8407 25.1995 13.6474 24.637 13.3955L24.6105 10.706L26.3946 10.7059L26.7375 12.077C26.9367 12.1766 27.1535 12.2557 27.3879 12.3142C27.6282 12.3728 27.9006 12.4021 28.2053 12.4021C28.7795 12.402 29.1838 12.3083 29.4182 12.1207C29.6525 11.9332 29.7697 11.6988 29.7697 11.4176C29.7697 11.1539 29.6437 10.9225 29.3917 10.7233C29.1456 10.5182 28.6505 10.3395 27.9063 10.1872C26.7813 9.95294 25.9522 9.58971 25.419 9.09756C24.8857 8.60541 24.6191 7.97554 24.619 7.20796C24.619 6.68062 24.7508 6.20014 25.0144 5.76653C25.284 5.33292 25.6912 4.98426 26.2361 4.72055C26.7868 4.45685 27.4899 4.32497 28.3454 4.32491C29.0603 4.32487 29.7136 4.39514 30.3054 4.53572C30.9031 4.67045 31.404 4.84913 31.8084 5.07176L31.8349 7.67332L30.0595 7.67344L29.787 6.42541C29.6287 6.30823 29.4412 6.22035 29.2244 6.16177C29.0135 6.10319 28.7733 6.07391 28.5037 6.07393C28.0526 6.07395 27.7069 6.1648 27.4666 6.34645C27.2264 6.52811 27.1063 6.76249 27.1063 7.0496C27.1063 7.21366 27.1474 7.366 27.2294 7.50662C27.3173 7.64724 27.4872 7.77907 27.7392 7.9021C27.9912 8.02513 28.3574 8.14229 28.8379 8.25359C30.0156 8.52305 30.874 8.88334 31.4131 9.33448C31.9522 9.77976 32.2218 10.4067 32.2218 11.2153C32.2219 12.1001 31.8997 12.8149 31.2552 13.3599C30.6165 13.9048 29.6585 14.1774 28.3812 14.1774ZM33.6719 13.9925L33.6718 12.4545L34.911 12.1907L34.9106 6.29324L33.5395 6.02966L33.5394 4.48278L37.4769 4.48253L37.4774 12.1905L38.7079 12.4541L38.708 13.9922L33.6719 13.9925ZM34.8225 2.47001L34.8223 0.28153L37.4766 0.281361L37.4768 2.46984L34.8225 2.47001ZM39.8326 13.9921L39.8325 12.4541L41.063 12.1903L41.0626 6.29285L39.7003 6.02927L39.7002 4.48239L43.4531 4.48215L43.5675 5.84445C43.8838 5.3581 44.2735 4.98015 44.7363 4.71058C45.2051 4.44102 45.7383 4.30622 46.3359 4.30619C47.2793 4.30613 48.0176 4.60784 48.5508 5.21132C49.0841 5.8148 49.3507 6.76107 49.3508 8.05013L49.3511 12.1898L50.5816 12.4534L50.5817 13.9915L45.6774 13.9918L45.6773 12.4537L46.7759 12.1899L46.7756 8.05909C46.7756 7.42042 46.6496 6.96925 46.3976 6.7056C46.1456 6.43608 45.7706 6.30134 45.2726 6.30137C44.9034 6.30139 44.5812 6.38052 44.3058 6.53874C44.0363 6.6911 43.8107 6.91084 43.6291 7.19796L43.6294 12.1901L44.6665 12.4538L44.6666 13.9918L39.8326 13.9921ZM56.2327 14.1757C55.3245 14.1757 54.5305 13.9766 53.8508 13.5782C53.1711 13.1739 52.6437 12.6202 52.2687 11.9171C51.8995 11.214 51.7149 10.4113 51.7148 9.50897L51.7148 9.1574C51.7147 8.21405 51.8905 7.37907 52.242 6.65249C52.5935 5.92004 53.0886 5.34579 53.7272 4.92974C54.3717 4.50782 55.1305 4.29977 56.0035 4.30557C56.8649 4.30551 57.5885 4.47539 58.1745 4.8152C58.7604 5.155 59.2058 5.64423 59.5105 6.28288C59.8152 6.92154 59.9676 7.69496 59.9677 8.60317L59.9678 10.0006L54.3779 10.001L54.3603 10.0537C54.3955 10.4697 54.4981 10.8418 54.668 11.1699C54.8438 11.4922 55.0899 11.747 55.4064 11.9345C55.7228 12.1161 56.1066 12.2069 56.5578 12.2069C57.0265 12.2069 57.463 12.1482 57.8673 12.031C58.2775 11.908 58.6759 11.7292 59.0626 11.4948L59.757 13.0768C59.3645 13.3932 58.8694 13.6569 58.2717 13.8679C57.6799 14.073 57.0003 14.1756 56.2327 14.1757ZM54.3954 8.30469L57.5682 8.30449L57.5682 8.07598C57.5682 7.68926 57.5154 7.35821 57.41 7.08282C57.3103 6.80158 57.1463 6.58479 56.9177 6.43246C56.6951 6.28013 56.405 6.20398 56.0476 6.204C55.7078 6.20403 55.4207 6.29486 55.1863 6.47652C54.9519 6.65232 54.7674 6.89549 54.6326 7.20605C54.5037 7.5166 54.4159 7.86817 54.369 8.26075L54.3954 8.30469ZM65.6103 14.1751C64.9013 14.1751 64.2392 14.1078 63.6239 13.9731C63.0145 13.8383 62.4286 13.645 61.8661 13.3931L61.8395 10.7036L63.6237 10.7035L63.9666 12.0746C64.1658 12.1742 64.3826 12.2533 64.617 12.3119C64.8572 12.3704 65.1297 12.3997 65.4344 12.3997C66.0086 12.3997 66.4129 12.3059 66.6472 12.1184C66.8816 11.9309 66.9988 11.6965 66.9988 11.4152C66.9987 11.1515 66.8727 10.9201 66.6208 10.7209C66.3747 10.5158 65.8795 10.3372 65.1354 10.1849C64.0104 9.95057 63.1813 9.58734 62.648 9.09518C62.1148 8.60303 61.8481 7.97316 61.8481 7.20559C61.8481 6.67824 61.9799 6.19777 62.2435 5.76415C62.513 5.33054 62.9202 4.98189 63.4651 4.71818C64.0159 4.45447 64.719 4.32259 65.5745 4.32254C66.2893 4.32249 66.9426 4.39276 67.5344 4.53335C68.1321 4.66808 68.6331 4.84675 69.0374 5.06939L69.0639 7.67095L67.2886 7.67106L67.016 6.42303C66.8578 6.30585 66.6703 6.21797 66.4535 6.15939C66.2426 6.10081 66.0023 6.07153 65.7328 6.07155C65.2816 6.07158 64.9359 6.16242 64.6957 6.34408C64.4555 6.52573 64.3354 6.76012 64.3354 7.04722C64.3354 7.21129 64.3764 7.36363 64.4585 7.50425C64.5464 7.64487 64.7163 7.77669 64.9683 7.89972C65.2202 8.02275 65.5864 8.13992 66.0669 8.25122C67.2447 8.52067 68.1031 8.88097 68.6422 9.33211C69.1813 9.77738 69.4508 10.4043 69.4509 11.2129C69.4509 12.0977 69.1287 12.8125 68.4842 13.3575C67.8456 13.9025 66.8876 14.175 65.6103 14.1751ZM75.0581 14.1745C74.3492 14.1745 73.687 14.1072 73.0718 13.9724C72.4624 13.8377 71.8765 13.6444 71.314 13.3925L71.2874 10.703L73.0716 10.7029L73.4145 12.074C73.6137 12.1736 73.8305 12.2527 74.0649 12.3113C74.3051 12.3698 74.5776 12.3991 74.8823 12.3991C75.4565 12.3991 75.8608 12.3053 76.0951 12.1178C76.3295 11.9302 76.4467 11.6959 76.4466 11.4146C76.4466 11.1509 76.3206 10.9195 76.0687 10.7203C75.8226 10.5152 75.3274 10.3366 74.5833 10.1843C73.4583 9.94996 72.6291 9.58673 72.0959 9.09458C71.5627 8.60243 71.296 7.97256 71.296 7.20498C71.296 6.67764 71.4278 6.19716 71.6914 5.76355C71.9609 5.32994 72.3681 4.98128 72.913 4.71758C73.4638 4.45387 74.1669 4.32199 75.0224 4.32193C75.7372 4.32189 76.3905 4.39216 76.9823 4.53275C77.58 4.66747 78.081 4.84615 78.4853 5.06878L78.5118 7.67034L76.7364 7.67046L76.4639 6.42243C76.3057 6.30525 76.1182 6.21737 75.9014 6.15879C75.6904 6.10021 75.4502 6.07093 75.1807 6.07095C74.7295 6.07098 74.3838 6.16182 74.1436 6.34347C73.9034 6.52513 73.7833 6.75951 73.7833 7.04662C73.7833 7.21068 73.8243 7.36303 73.9064 7.50364C73.9943 7.64426 74.1642 7.77609 74.4161 7.89912C74.6681 8.02215 75.0343 8.13931 75.5148 8.25061C76.6926 8.52007 77.551 8.88037 78.0901 9.3315C78.6292 9.77678 78.8987 10.4037 78.8988 11.2123C78.8988 12.0971 78.5766 12.8119 77.9321 13.3569C77.2935 13.9019 76.3355 14.1744 75.0581 14.1745ZM85.1385 13.9893L85.1384 12.4512L86.5183 12.161L86.5177 3.038L85.1378 2.73926L85.1377 1.19238L86.5176 1.19229L90.7539 1.19202C91.8965 1.19195 92.9043 1.46142 93.7774 2.00042C94.6505 2.53357 95.3302 3.27474 95.8166 4.22393C96.3088 5.16725 96.555 6.25122 96.5551 7.47583L96.5551 7.71314C96.5552 8.92603 96.3121 10.0071 95.8258 10.9563C95.3454 11.8997 94.6716 12.641 93.8045 13.1801C92.9373 13.7192 91.9324 13.9888 90.7899 13.9889L85.1385 13.9893ZM89.0847 12.029L90.6579 12.0289C91.3669 12.0289 91.9675 11.8443 92.4596 11.4751C92.9518 11.1001 93.3267 10.5874 93.5845 9.93696C93.8481 9.28655 93.9799 8.54533 93.9799 7.7133L93.9799 7.46721C93.9798 6.62346 93.8479 5.87933 93.5842 5.23481C93.3264 4.58444 92.9513 4.07762 92.4591 3.71437C91.9669 3.34527 91.3663 3.16073 90.6573 3.16078L89.0841 3.16088L89.0847 12.029ZM102.628 14.1727C101.691 14.1728 100.885 13.9677 100.211 13.5576C99.5375 13.1475 99.0218 12.5792 98.6644 11.8527C98.3069 11.1203 98.1281 10.2794 98.1281 9.33022L98.1281 9.14565C98.128 8.20229 98.3067 7.36732 98.664 6.64074C99.0214 5.90829 99.5341 5.33697 100.202 4.92677C100.876 4.51071 101.679 4.30265 102.61 4.30259C103.554 4.30253 104.359 4.51049 105.027 4.92646C105.695 5.33658 106.208 5.9049 106.565 6.63144C106.923 7.35798 107.102 8.19586 107.102 9.14508L107.102 9.32965C107.102 10.2789 106.923 11.1197 106.566 11.8521C106.208 12.5787 105.696 13.1471 105.028 13.5573C104.36 13.9675 103.56 14.1727 102.628 14.1727ZM102.628 12.204C103.074 12.2039 103.437 12.0838 103.718 11.8435C103.999 11.6033 104.207 11.2693 104.342 10.8415C104.477 10.4079 104.544 9.90403 104.544 9.32981L104.544 9.14524C104.544 8.58274 104.477 8.08763 104.342 7.65991C104.207 7.22632 103.996 6.88942 103.709 6.6492C103.428 6.40313 103.061 6.2801 102.61 6.28013C102.171 6.28016 101.808 6.40323 101.52 6.64934C101.233 6.8896 101.022 7.22652 100.888 7.66013C100.759 8.08787 100.694 8.58299 100.694 9.14549L100.694 9.33006C100.695 9.90428 100.759 10.4082 100.888 10.8418C101.023 11.2754 101.234 11.6123 101.521 11.8525C101.808 12.0868 102.177 12.204 102.628 12.204ZM113.192 14.172C112.278 14.1721 111.487 13.9671 110.819 13.557C110.157 13.1468 109.647 12.5814 109.29 11.8608C108.933 11.1342 108.754 10.3051 108.754 9.37349L108.754 9.10982C108.754 8.17232 108.935 7.34321 109.298 6.62248C109.662 5.90175 110.174 5.33629 110.836 4.92609C111.499 4.51003 112.278 4.30198 113.174 4.30192C114.03 4.30187 114.765 4.43658 115.38 4.70608C116.001 4.96971 116.505 5.27729 116.892 5.62883L116.875 8.35344L114.941 8.35356L114.598 6.6573C114.458 6.51668 114.279 6.40244 114.062 6.31456C113.845 6.22668 113.626 6.18275 113.403 6.18276C112.934 6.18279 112.545 6.30001 112.234 6.5344C111.929 6.7688 111.701 7.1028 111.549 7.5364C111.396 7.97 111.32 8.49442 111.32 9.10966L111.32 9.37333C111.32 10.0237 111.405 10.5598 111.575 10.9817C111.745 11.3977 111.971 11.7053 112.252 11.9045C112.539 12.1037 112.858 12.2033 113.21 12.2033C113.661 12.2033 114.021 12.086 114.291 11.8517C114.566 11.6114 114.754 11.2745 114.853 10.8409L117.051 10.8407L117.077 10.8935C116.977 11.5673 116.778 12.1503 116.479 12.6425C116.187 13.1347 115.771 13.5127 115.232 13.7764C114.698 14.0401 114.019 14.172 113.192 14.172ZM122.623 14.1714C121.621 14.1715 120.833 13.8551 120.258 13.2224C119.69 12.5837 119.406 11.5935 119.406 10.2517L119.405 6.28785L118.36 6.02425L118.359 4.47737L119.405 4.4773L121.972 4.47714L121.972 10.2691C121.972 10.9488 122.089 11.4381 122.324 11.7369C122.564 12.0298 122.924 12.1763 123.405 12.1763C123.786 12.1762 124.123 12.103 124.416 11.9565C124.709 11.8041 124.949 11.5902 125.136 11.3148L125.136 6.28748L124.002 6.02388L124.002 4.47701L125.136 4.47694L127.702 4.47677L127.703 12.1848L128.845 12.4484L128.845 13.9865L125.453 13.9867L125.277 12.7826C124.978 13.2279 124.603 13.5707 124.152 13.811C123.701 14.0512 123.191 14.1714 122.623 14.1714ZM130.067 13.9864L130.067 12.4483L131.306 12.1846L131.306 6.28709L129.934 6.02351L129.934 4.47663L133.687 4.47639L133.793 5.73322C134.097 5.27617 134.478 4.92458 134.935 4.67846C135.398 4.42648 135.931 4.30047 136.535 4.30043C137.144 4.30039 137.666 4.43512 138.099 4.70463C138.539 4.97413 138.867 5.38133 139.084 5.92624C139.377 5.41646 139.758 5.018 140.226 4.73086C140.695 4.44372 141.246 4.30013 141.879 4.30009C142.816 4.30003 143.554 4.61932 144.094 5.25795C144.639 5.89659 144.911 6.86923 144.911 8.17587L144.911 12.1837L146.151 12.4473L146.151 13.9854L141.238 13.9857L141.238 12.4476L142.345 12.1838L142.345 8.16725C142.345 7.46412 142.227 6.9778 141.993 6.70828C141.765 6.43291 141.431 6.29523 140.991 6.29526C140.593 6.29529 140.256 6.40957 139.98 6.6381C139.705 6.86077 139.506 7.15668 139.383 7.52583L139.383 12.184L140.42 12.4476L140.42 13.9857L135.788 13.986L135.788 12.4479L136.825 12.1842L136.825 8.1676C136.825 7.48205 136.708 6.99866 136.474 6.71742C136.245 6.43619 135.905 6.29559 135.454 6.29561C135.091 6.29564 134.777 6.3689 134.514 6.5154C134.25 6.6619 134.033 6.87285 133.863 7.14826L133.864 12.1844L134.971 12.448L134.971 13.9861L130.067 13.9864ZM151.828 14.1696C150.92 14.1696 150.126 13.9705 149.446 13.5721C148.767 13.1678 148.239 12.6141 147.864 11.911C147.495 11.2079 147.31 10.4052 147.31 9.50287L147.31 9.1513C147.31 8.20794 147.486 7.37297 147.837 6.64639C148.189 5.91394 148.684 5.33969 149.323 4.92364C149.967 4.50172 150.726 4.29366 151.599 4.29947C152.46 4.29941 153.184 4.46929 153.77 4.80909C154.356 5.1489 154.801 5.63813 155.106 6.27678C155.411 6.91543 155.563 7.68886 155.563 8.59707L155.563 9.99453L149.973 9.99488L149.956 10.0476C149.991 10.4636 150.094 10.8357 150.263 11.1638C150.439 11.4861 150.685 11.7409 151.002 11.9284C151.318 12.11 151.702 12.2008 152.153 12.2008C152.622 12.2008 153.058 12.1421 153.463 12.0249C153.873 11.9019 154.271 11.7231 154.658 11.4887L155.352 13.0707C154.96 13.3871 154.465 13.6508 153.867 13.8618C153.275 14.0669 152.596 14.1695 151.828 14.1696ZM149.991 8.29859L153.164 8.29839L153.164 8.06988C153.164 7.68316 153.111 7.35211 153.005 7.07672C152.906 6.79548 152.742 6.57869 152.513 6.42636C152.291 6.27403 152 6.19788 151.643 6.1979C151.303 6.19792 151.016 6.28876 150.782 6.47042C150.547 6.64621 150.363 6.88939 150.228 7.19995C150.099 7.5105 150.011 7.86207 149.964 8.25465L149.991 8.29859ZM157.013 13.9847L157.013 12.4466L158.244 12.1828L158.243 6.28537L156.881 6.02179L156.881 4.47491L160.634 4.47467L160.748 5.83697C161.065 5.35062 161.454 4.97267 161.917 4.70311C162.386 4.43354 162.919 4.29874 163.517 4.29871C164.46 4.29865 165.198 4.60036 165.732 5.20384C166.265 5.80732 166.531 6.75359 166.532 8.04265L166.532 12.1823L167.762 12.4459L167.762 13.984L162.858 13.9843L162.858 12.4462L163.957 12.1825L163.956 8.05161C163.956 7.41294 163.83 6.96177 163.578 6.69812C163.326 6.4286 162.951 6.29386 162.453 6.29389C162.084 6.29392 161.762 6.37304 161.486 6.53126C161.217 6.68362 160.991 6.90336 160.81 7.19048L160.81 12.1827L161.847 12.4463L161.847 13.9844L157.013 13.9847ZM172.385 14.1683C171.5 14.1683 170.818 13.9252 170.337 13.4389C169.863 12.9526 169.625 12.1821 169.625 11.1274L169.625 6.27586L168.315 6.27594L168.315 4.47418L169.625 4.4741L169.625 2.145L172.182 2.14483L172.182 4.47393L173.931 4.47382L173.931 6.27558L172.182 6.27569L172.183 11.1185C172.183 11.4876 172.259 11.7513 172.411 11.9095C172.569 12.0677 172.783 12.1467 173.053 12.1467C173.199 12.1467 173.352 12.1379 173.51 12.1203C173.674 12.0969 173.815 12.0734 173.932 12.05L174.152 13.9045C173.888 13.9807 173.601 14.0422 173.29 14.0891C172.986 14.1419 172.684 14.1682 172.385 14.1683ZM180.189 13.9832L180.189 12.4451L181.551 12.1813L181.551 2.99677L180.188 2.73319L180.188 1.18631L181.551 1.18623L185.347 1.18599L188.837 10.1067L188.89 10.1067L192.264 1.18554L197.432 1.18521L197.432 2.73209L196.061 2.99585L196.062 12.1804L197.433 12.444L197.433 13.9821L192.133 13.9824L192.133 12.4443L193.566 12.1806L193.566 9.72843L193.609 3.95401L193.557 3.94523L189.734 13.8068L187.792 13.8069L183.88 4.02495L183.827 4.03374L183.977 9.46537L183.977 12.1812L185.489 12.4448L185.489 13.9829L180.189 13.9832ZM201.95 14.1664C201.007 14.1664 200.257 13.9145 199.7 13.4107C199.144 12.9009 198.865 12.2095 198.865 11.3365C198.865 10.7388 199.026 10.2144 199.349 9.76322C199.677 9.31202 200.157 8.9575 200.79 8.69965C201.429 8.44179 202.214 8.31284 203.145 8.31278L204.402 8.3127L204.402 7.60957C204.402 7.15254 204.267 6.78341 203.998 6.50218C203.734 6.21508 203.336 6.07156 202.802 6.07159C202.527 6.07161 202.281 6.10678 202.064 6.17711C201.847 6.24157 201.648 6.33534 201.467 6.45839L201.264 7.71524L199.419 7.71536L199.383 5.24564C199.881 4.96435 200.421 4.7358 201.001 4.55999C201.581 4.38417 202.228 4.29624 202.943 4.29619C204.185 4.29611 205.167 4.58609 205.887 5.16612C206.608 5.74029 206.968 6.56351 206.969 7.63578L206.969 11.5557C206.969 11.6846 206.969 11.8135 206.969 11.9424C206.975 12.0655 206.986 12.1856 207.004 12.3028L207.997 12.4433L207.997 13.9814L204.816 13.9816C204.751 13.8176 204.687 13.6418 204.622 13.4543C204.558 13.2668 204.511 13.0793 204.482 12.8918C204.177 13.2785 203.817 13.5891 203.401 13.8235C202.99 14.052 202.507 14.1663 201.95 14.1664ZM202.636 12.2679C202.993 12.2679 203.333 12.1887 203.655 12.0305C203.978 11.8664 204.227 11.6526 204.402 11.3889L204.402 9.88594L203.137 9.88602C202.574 9.88606 202.146 10.015 201.853 10.2728C201.566 10.5307 201.423 10.8412 201.423 11.2045C201.423 11.5443 201.528 11.808 201.739 11.9955C201.956 12.1771 202.255 12.2679 202.636 12.2679ZM209.175 13.9813L209.175 12.4433L210.405 12.1795L210.405 6.28204L209.042 6.01846L209.042 4.47158L212.795 4.47134L212.909 5.83364C213.226 5.34729 213.615 4.96934 214.078 4.69978C214.547 4.43022 215.08 4.29542 215.678 4.29538C216.621 4.29532 217.36 4.59703 217.893 5.20051C218.426 5.80399 218.693 6.75026 218.693 8.03933L218.693 12.179L219.924 12.4426L219.924 13.9807L215.019 13.981L215.019 12.4429L216.118 12.1791L216.118 8.04828C216.118 7.40961 215.992 6.95844 215.74 6.69479C215.488 6.42527 215.113 6.29053 214.615 6.29056C214.245 6.29059 213.923 6.36971 213.648 6.52793C213.378 6.68029 213.153 6.90003 212.971 7.18715L212.971 12.1793L214.009 12.4429L214.009 13.981L209.175 13.9813ZM224.309 14.1649C223.366 14.165 222.616 13.9131 222.059 13.4092C221.502 12.8995 221.224 12.2081 221.224 11.3351C221.224 10.7374 221.385 10.213 221.707 9.76179C222.035 9.3106 222.516 8.95607 223.149 8.69822C223.787 8.44037 224.572 8.31141 225.504 8.31135L226.761 8.31127L226.761 7.60815C226.761 7.15112 226.626 6.78198 226.356 6.50075C226.093 6.21366 225.694 6.07013 225.161 6.07016C224.886 6.07018 224.64 6.10535 224.423 6.17568C224.206 6.24015 224.007 6.33391 223.825 6.45697L223.623 7.71382L221.777 7.71393L221.742 5.24421C222.24 4.96293 222.779 4.73438 223.359 4.55856C223.939 4.38274 224.587 4.29481 225.302 4.29476C226.544 4.29468 227.525 4.58466 228.246 5.16469C228.967 5.73887 229.327 6.56208 229.327 7.63435L229.327 11.5543C229.327 11.6832 229.327 11.8121 229.327 11.941C229.333 12.064 229.345 12.1842 229.363 12.3013L230.356 12.4419L230.356 13.98L227.174 13.9802C227.11 13.8161 227.045 13.6404 226.981 13.4529C226.916 13.2654 226.87 13.0779 226.84 12.8904C226.536 13.2771 226.175 13.5877 225.759 13.8221C225.349 14.0506 224.866 14.1649 224.309 14.1649ZM224.995 12.2665C225.352 12.2664 225.692 12.1873 226.014 12.0291C226.336 11.865 226.585 11.6511 226.761 11.3874L226.761 9.88451L225.495 9.88459C224.933 9.88463 224.505 10.0136 224.212 10.2714C223.925 10.5292 223.782 10.8398 223.782 11.2031C223.782 11.5429 223.887 11.8066 224.098 11.9941C224.315 12.1757 224.614 12.2665 224.995 12.2665ZM235.823 17.8205C235.342 17.8205 234.803 17.759 234.205 17.636C233.608 17.513 233.08 17.3372 232.623 17.1087L233.098 15.2806C233.508 15.4563 233.942 15.594 234.399 15.6936C234.862 15.799 235.292 15.8517 235.691 15.8517C236.376 15.8517 236.877 15.6612 237.194 15.2803C237.516 14.8995 237.677 14.3692 237.677 13.6895L237.677 13.0655C237.396 13.4229 237.065 13.6954 236.684 13.8829C236.303 14.0704 235.866 14.1642 235.374 14.1642C234.601 14.1643 233.936 13.971 233.379 13.5843C232.822 13.1917 232.398 12.6439 232.104 11.9408C231.811 11.2377 231.665 10.4203 231.665 9.48869L231.665 9.30412C231.665 8.30217 231.811 7.42618 232.104 6.67616C232.397 5.92615 232.816 5.34311 233.361 4.92706C233.906 4.50515 234.559 4.29417 235.321 4.29412C235.889 4.29409 236.378 4.41417 236.789 4.65438C237.199 4.88873 237.547 5.22562 237.835 5.66506L238.019 4.46973L240.251 4.46959L240.252 13.6981C240.252 14.536 240.073 15.2626 239.716 15.8778C239.365 16.4931 238.858 16.9707 238.196 17.3105C237.534 17.6504 236.743 17.8204 235.823 17.8205ZM236.095 12.1691C236.458 12.1691 236.771 12.0987 237.035 11.9581C237.299 11.8116 237.513 11.6006 237.677 11.3252L237.676 7.19436C237.512 6.90726 237.296 6.68462 237.026 6.52644C236.762 6.36825 236.455 6.28917 236.103 6.28919C235.664 6.28922 235.306 6.41815 235.031 6.67598C234.756 6.92795 234.553 7.27952 234.425 7.7307C234.296 8.17602 234.231 8.70044 234.231 9.30396L234.231 9.48853C234.231 10.3206 234.375 10.9768 234.662 11.4573C234.949 11.9318 235.427 12.1691 236.095 12.1691ZM239.926 6.3241L238.81 4.46968L241.368 4.46952L241.368 6.01639L239.926 6.3241ZM246.967 14.1635C246.058 14.1636 245.264 13.9644 244.585 13.566C243.905 13.1617 243.378 12.6081 243.003 11.905C242.633 11.2019 242.449 10.3991 242.449 9.49679L242.449 9.14523C242.449 8.20187 242.624 7.3669 242.976 6.64031C243.327 5.90787 243.822 5.33362 244.461 4.91756C245.106 4.49565 245.864 4.28759 246.737 4.29339C247.599 4.29334 248.322 4.46322 248.908 4.80302C249.494 5.14283 249.94 5.63206 250.244 6.27071C250.549 6.90936 250.702 7.68279 250.702 8.59099L250.702 9.98845L245.112 9.98881L245.094 10.0415C245.129 10.4576 245.232 10.8296 245.402 11.1577C245.578 11.48 245.824 11.7349 246.14 11.9223C246.457 12.104 246.84 12.1948 247.292 12.1947C247.76 12.1947 248.197 12.1361 248.601 12.0189C249.011 11.8958 249.41 11.7171 249.796 11.4827L250.491 13.0646C250.098 13.3811 249.603 13.6448 249.006 13.8558C248.414 14.0609 247.734 14.1634 246.967 14.1635ZM245.129 8.29252L248.302 8.29232L248.302 8.0638C248.302 7.67708 248.249 7.34603 248.144 7.07065C248.044 6.78941 247.88 6.57262 247.652 6.42029C247.429 6.26796 247.139 6.19181 246.782 6.19183C246.442 6.19185 246.155 6.28269 245.92 6.46435C245.686 6.64014 245.501 6.88332 245.367 7.19387C245.238 7.50443 245.15 7.856 245.103 8.24858L245.129 8.29252ZM252.152 13.9786L252.152 12.4405L253.391 12.1768L253.391 6.2793L252.019 6.01571L252.019 4.46884L255.772 4.4686L255.878 5.72543C256.182 5.26838 256.563 4.91679 257.02 4.67067C257.483 4.41869 258.016 4.29268 258.62 4.29264C259.229 4.2926 259.751 4.42733 260.184 4.69683C260.624 4.96634 260.952 5.37354 261.169 5.91845C261.462 5.40867 261.843 5.0102 262.311 4.72306C262.78 4.43593 263.331 4.29234 263.964 4.2923C264.901 4.29224 265.639 4.61152 266.179 5.25016C266.724 5.8888 266.996 6.86144 266.996 8.16808L266.996 12.1759L268.236 12.4395L268.236 13.9776L263.323 13.9779L263.323 12.4398L264.43 12.1761L264.43 8.15945C264.43 7.45633 264.312 6.97001 264.078 6.70049C263.85 6.42512 263.516 6.28744 263.076 6.28747C262.678 6.28749 262.341 6.40177 262.065 6.63031C261.79 6.85298 261.591 7.14889 261.468 7.51804L261.468 12.1762L262.505 12.4398L262.505 13.9779L257.873 13.9782L257.873 12.4401L258.91 12.1764L258.91 8.15981C258.91 7.47426 258.793 6.99087 258.559 6.70963C258.33 6.4284 257.99 6.28779 257.539 6.28782C257.176 6.28785 256.862 6.36111 256.599 6.50761C256.335 6.65411 256.118 6.86506 255.948 7.14046L255.949 12.1766L257.056 12.4402L257.056 13.9783L252.152 13.9786ZM273.913 14.1618C273.005 14.1618 272.211 13.9627 271.531 13.5643C270.852 13.16 270.324 12.6063 269.949 11.9032C269.58 11.2001 269.395 10.3974 269.395 9.49507L269.395 9.14351C269.395 8.20015 269.571 7.36518 269.922 6.63859C270.274 5.90615 270.769 5.3319 271.408 4.91584C272.052 4.49393 272.811 4.28587 273.684 4.29168C274.545 4.29162 275.269 4.4615 275.855 4.8013C276.441 5.14111 276.886 5.63034 277.191 6.26899C277.496 6.90764 277.648 7.68107 277.648 8.58927L277.648 9.98673L272.058 9.98709L272.041 10.0398C272.076 10.4558 272.179 10.8279 272.349 11.156C272.524 11.4783 272.77 11.7331 273.087 11.9206C273.403 12.1022 273.787 12.193 274.238 12.193C274.707 12.193 275.143 12.1344 275.548 12.0171C275.958 11.8941 276.356 11.7153 276.743 11.4809L277.437 13.0629C277.045 13.3794 276.55 13.6431 275.952 13.854C275.36 14.0591 274.681 14.1617 273.913 14.1618ZM272.076 8.2908L275.249 8.2906L275.249 8.06208C275.249 7.67536 275.196 7.34431 275.09 7.06893C274.991 6.78769 274.827 6.5709 274.598 6.41857C274.376 6.26624 274.085 6.19009 273.728 6.19011C273.388 6.19013 273.101 6.28097 272.867 6.46263C272.632 6.63842 272.448 6.8816 272.313 7.19215C272.184 7.50271 272.096 7.85428 272.049 8.24686L272.076 8.2908ZM279.098 13.9769L279.098 12.4388L280.329 12.175L280.328 6.27758L278.966 6.01399L278.966 4.46712L282.719 4.46688L282.833 5.82918C283.15 5.34283 283.539 4.96487 284.002 4.69531C284.471 4.42575 285.004 4.29095 285.602 4.29091C286.545 4.29085 287.283 4.59256 287.817 5.19605C288.35 5.79953 288.616 6.7458 288.616 8.03486L288.617 12.1745L289.847 12.4381L289.847 13.9762L284.943 13.9765L284.943 12.4384L286.042 12.1747L286.041 8.04382C286.041 7.40514 285.915 6.95398 285.663 6.69032C285.411 6.42081 285.036 6.28607 284.538 6.2861C284.169 6.28612 283.847 6.36525 283.571 6.52347C283.302 6.67583 283.076 6.89557 282.895 7.18269L282.895 12.1749L283.932 12.4385L283.932 13.9766L279.098 13.9769ZM294.47 14.1605C293.585 14.1605 292.903 13.9174 292.422 13.4311C291.948 12.9448 291.71 12.1743 291.71 11.1196L291.71 6.26806L290.4 6.26815L290.4 4.46639L291.71 4.46631L291.71 2.1372L294.267 2.13704L294.267 4.46614L296.016 4.46603L296.016 6.26779L294.267 6.2679L294.268 11.1107C294.268 11.4798 294.344 11.7435 294.496 11.9017C294.655 12.0599 294.868 12.139 295.138 12.1389C295.284 12.1389 295.437 12.1301 295.595 12.1125C295.759 12.0891 295.9 12.0656 296.017 12.0422L296.237 13.8967C295.973 13.9729 295.686 14.0344 295.375 14.0813C295.071 14.1341 294.769 14.1604 294.47 14.1605Z" fill="white"/>
</svg>
