<svg width="16" height="16" viewBox="0 0 16 16" fill="none" xmlns="http://www.w3.org/2000/svg">
<path d="M8 16C6.89333 16 5.85333 15.79 4.88 15.37C3.90667 14.95 3.06 14.38 2.34 13.66C1.62 12.94 1.05 12.0933 0.63 11.12C0.21 10.1467 0 9.10667 0 8.00001C0 6.89334 0.21 5.85334 0.63 4.88001C1.05 3.90667 1.62 3.06001 2.34 2.34001C3.06 1.62001 3.90667 1.05001 4.88 0.630008C5.85333 0.210008 6.89333 7.62939e-06 8 7.62939e-06C9.10667 7.62939e-06 10.1467 0.210008 11.12 0.630008C12.0933 1.05001 12.94 1.62001 13.66 2.34001C14.38 3.06001 14.95 3.90667 15.37 4.88001C15.79 5.85334 16 6.89334 16 8.00001C16 9.10667 15.79 10.1467 15.37 11.12C14.95 12.0933 14.38 12.94 13.66 13.66C12.94 14.38 12.0933 14.95 11.12 15.37C10.1467 15.79 9.10667 16 8 16ZM3.46 12.54L8 8.00001V1.60001C6.21333 1.60001 4.7 2.22001 3.46 3.46001C2.22 4.70001 1.6 6.21334 1.6 8.00001C1.6 8.85334 1.76 9.67334 2.08 10.46C2.4 11.2467 2.86 11.94 3.46 12.54Z" fill="#3E7EE9"/>
</svg>
