<svg width="81" height="9" viewBox="0 0 81 9" fill="none" xmlns="http://www.w3.org/2000/svg">
<path d="M10.6326 0.993978L6.87308 7.99422L6.09308 7.99427L5.2327 2.05432L1.97308 7.99453L1.19308 7.99458L0.232636 0.994641L0.962636 0.994595L1.79302 7.02454L5.08264 0.994332L5.77264 0.994288L6.62302 7.03423L9.89264 0.994025L10.6326 0.993978ZM12.3795 8.04387C11.8995 8.0439 11.4795 7.95392 11.1195 7.77395C10.7595 7.5873 10.4794 7.32732 10.2794 6.994C10.0861 6.65401 9.98938 6.26069 9.98935 5.81402C9.98931 5.22069 10.1193 4.68734 10.3792 4.21399C10.6392 3.74064 10.9992 3.37062 11.4592 3.10393C11.9258 2.83056 12.4492 2.69386 13.0292 2.69382C13.7625 2.69378 14.3425 2.89374 14.7692 3.29371C15.2025 3.69369 15.4192 4.23367 15.4193 4.91367C15.4193 5.50701 15.2894 6.04368 15.0294 6.5237C14.7694 6.99705 14.4061 7.3704 13.9395 7.64377C13.4795 7.91046 12.9595 8.04383 12.3795 8.04387ZM12.4295 7.41386C12.8628 7.41384 13.2528 7.31048 13.5994 7.10379C13.9461 6.89043 14.2161 6.59708 14.4094 6.22374C14.6094 5.84372 14.7093 5.42038 14.7093 4.95372C14.7093 4.44038 14.5559 4.04039 14.2492 3.75375C13.9492 3.46043 13.5259 3.31379 12.9792 3.31383C12.5459 3.31386 12.1559 3.42055 11.8092 3.6339C11.4626 3.84726 11.1892 4.14394 10.9893 4.52396C10.796 4.8973 10.6993 5.31731 10.6993 5.78397C10.6994 6.29731 10.8494 6.6973 11.1494 6.98395C11.4561 7.27059 11.8828 7.4139 12.4295 7.41386ZM17.8487 3.69352C18.0821 3.3535 18.3754 3.10348 18.7287 2.94346C19.082 2.77677 19.5087 2.69341 20.0087 2.69338L19.8787 3.38339L19.6787 3.3734C19.1121 3.37344 18.6454 3.5368 18.2788 3.86349C17.9188 4.19018 17.6755 4.67686 17.5488 5.32354L17.019 7.99357L16.309 7.99362L17.3487 2.73355L18.0287 2.73351L17.8487 3.69352ZM23.2844 4.90317L25.1746 7.99305L24.3446 7.9931L22.7244 5.33321L21.2545 6.4733L20.9546 7.99332L20.2446 7.99336L21.7241 0.57327L22.4341 0.573224L21.4344 5.56329L25.0542 2.73306L26.0642 2.73299L23.2844 4.90317ZM33.1698 1.59254C32.4765 1.59258 31.8631 1.74929 31.3298 2.06266C30.7965 2.37602 30.3832 2.79938 30.0899 3.33274C29.8033 3.86609 29.66 4.4561 29.66 5.10276C29.6601 5.80276 29.8834 6.35942 30.3301 6.77272C30.7835 7.18603 31.4335 7.39265 32.2802 7.3926C32.9535 7.39255 33.5501 7.20918 34.0701 6.84248L34.54 4.49245L35.25 4.49241L34.7101 7.18244C34.3835 7.4558 34.0002 7.66915 33.5602 7.82251C33.1269 7.97588 32.6735 8.05257 32.2002 8.0526C31.5269 8.05264 30.9435 7.93268 30.4502 7.69271C29.9568 7.45274 29.5801 7.11277 29.3201 6.67279C29.0601 6.2328 28.93 5.72281 28.93 5.14281C28.93 4.36948 29.1032 3.6628 29.4499 3.02278C29.8032 2.38275 30.3031 1.87606 30.9498 1.50268C31.5964 1.12264 32.3464 0.932592 33.1997 0.932537C33.7864 0.9325 34.2997 1.02247 34.7398 1.20244C35.1864 1.37574 35.5398 1.62572 35.7998 1.95237L35.2798 2.4024C35.0398 2.12242 34.7465 1.91911 34.3998 1.79246C34.0531 1.65915 33.6431 1.59251 33.1698 1.59254ZM37.1544 5.56229C37.1477 5.60895 37.1444 5.67895 37.1444 5.77229C37.1445 6.30562 37.2945 6.71228 37.5945 6.99226C37.9012 7.27224 38.3545 7.41221 38.9545 7.41217C39.3012 7.41215 39.6245 7.35546 39.9245 7.24211C40.2312 7.12209 40.4812 6.95874 40.6745 6.75206L40.9945 7.26204C40.7479 7.50872 40.4379 7.70208 40.0646 7.8421C39.6979 7.97546 39.3079 8.04215 38.8946 8.04217C38.1346 8.04222 37.5346 7.84226 37.0945 7.44229C36.6612 7.04232 36.4445 6.49566 36.4444 5.80233C36.4444 5.21566 36.5677 4.68566 36.8143 4.21231C37.0676 3.73896 37.4143 3.36894 37.8543 3.10224C38.3009 2.82888 38.8009 2.69218 39.3542 2.69214C40.0542 2.6921 40.6109 2.89206 41.0243 3.29204C41.4376 3.68535 41.6443 4.22867 41.6444 4.922C41.6444 5.11533 41.6211 5.32867 41.5744 5.562L37.1544 5.56229ZM39.3343 3.29215C38.8076 3.29218 38.3576 3.44888 37.9843 3.76223C37.611 4.07559 37.3577 4.49894 37.2244 5.03228L40.9744 5.03204C40.981 4.98537 40.9844 4.92204 40.9844 4.84204C40.9843 4.34871 40.8343 3.96872 40.5343 3.70207C40.2343 3.42876 39.8343 3.29211 39.3343 3.29215ZM43.6696 6.40187C43.643 6.56187 43.6296 6.67187 43.6296 6.73187C43.6297 7.19854 43.883 7.43186 44.3897 7.43182C44.6897 7.4318 44.9597 7.34179 45.1997 7.16177L45.3697 7.70176C45.0697 7.92845 44.6797 8.04181 44.1997 8.04184C43.8064 8.04186 43.4931 7.93521 43.2597 7.7219C43.033 7.50858 42.9197 7.21525 42.9196 6.84192C42.9196 6.69525 42.933 6.55858 42.9596 6.43191L43.5694 3.33188L42.6394 3.33194L42.7494 2.73193L43.6894 2.73187L43.9193 1.58185L44.6293 1.58181L44.3994 2.73182L45.9994 2.73172L45.8794 3.33173L44.2794 3.33183L43.6696 6.40187ZM48.1222 8.04159C47.7022 8.04161 47.2989 7.98164 46.9122 7.86166C46.5322 7.74169 46.2389 7.58837 46.0322 7.40172L46.3721 6.8417C46.5722 7.01502 46.8355 7.155 47.1622 7.26165C47.4889 7.36829 47.8322 7.4216 48.1922 7.42158C48.6922 7.42155 49.0755 7.34152 49.3422 7.18151C49.6155 7.01482 49.7521 6.78148 49.7521 6.48148C49.7521 6.31481 49.6954 6.18148 49.5821 6.08149C49.4754 5.9815 49.3421 5.90484 49.1821 5.85152C49.0221 5.79819 48.7887 5.73821 48.4821 5.67156C48.1154 5.59159 47.8187 5.5116 47.5921 5.43162C47.3654 5.35163 47.172 5.22498 47.012 5.05166C46.852 4.87833 46.772 4.63834 46.772 4.33167C46.772 3.83167 46.9786 3.43499 47.3919 3.14163C47.8052 2.84161 48.3586 2.69157 49.0519 2.69153C49.3919 2.6915 49.7219 2.73815 50.0419 2.83146C50.3686 2.91811 50.6319 3.03476 50.8319 3.18141L50.532 3.75143C50.3319 3.60478 50.0953 3.49479 49.8219 3.42148C49.5553 3.34149 49.2786 3.30151 48.9919 3.30153C48.5119 3.30156 48.1386 3.38825 47.8719 3.5616C47.6053 3.73495 47.472 3.96829 47.472 4.26163C47.472 4.43496 47.5287 4.57496 47.642 4.68162C47.7554 4.78828 47.8954 4.86827 48.062 4.92159C48.2354 4.97491 48.4687 5.03156 48.762 5.09154C49.122 5.17152 49.412 5.2515 49.6321 5.33149C49.8587 5.40481 50.0521 5.52813 50.2121 5.70145C50.3721 5.87477 50.4521 6.1081 50.4521 6.40144C50.4522 6.91477 50.2388 7.31812 49.8122 7.61148C49.3922 7.89817 48.8289 8.04154 48.1222 8.04159ZM55.6515 0.991104L58.3115 0.990935C59.0049 0.99089 59.5982 1.10752 60.0916 1.34082C60.5916 1.57412 60.9683 1.90743 61.2216 2.34075C61.4817 2.7674 61.6117 3.26739 61.6117 3.84072C61.6118 4.65406 61.4318 5.37407 61.0719 6.00076C60.7119 6.62745 60.2019 7.11748 59.542 7.47086C58.8886 7.81756 58.1287 7.99095 57.262 7.991L54.252 7.99119L55.6515 0.991104ZM57.2819 7.351C58.0086 7.35095 58.6419 7.20425 59.1819 6.91088C59.7286 6.61084 60.1452 6.19748 60.4318 5.6708C60.7251 5.14411 60.8718 4.5441 60.8717 3.87077C60.8717 3.17744 60.6483 2.63079 60.2016 2.23081C59.7549 1.83084 59.0982 1.63088 58.2316 1.63094L56.2516 1.63107L55.1119 7.35114L57.2819 7.351ZM64.7037 8.04053C64.2237 8.04056 63.8037 7.95058 63.4437 7.77061C63.0837 7.58396 62.8037 7.32398 62.6036 6.99066C62.4103 6.65067 62.3136 6.25735 62.3136 5.81068C62.3135 5.21735 62.4435 4.684 62.7035 4.21065C62.9634 3.7373 63.3234 3.36728 63.7834 3.10059C64.25 2.82722 64.7734 2.69052 65.3534 2.69049C66.0867 2.69044 66.6667 2.8904 67.0934 3.29037C67.5268 3.69035 67.7435 4.23033 67.7435 4.91033C67.7435 5.50367 67.6136 6.04034 67.3536 6.52036C67.0936 6.99371 66.7303 7.36706 66.2637 7.64043C65.8037 7.90712 65.2837 8.04049 64.7037 8.04053ZM64.7537 7.41052C65.187 7.4105 65.577 7.30714 65.9237 7.10045C66.2703 6.88709 66.5403 6.59374 66.7336 6.2204C66.9336 5.84038 67.0335 5.41704 67.0335 4.95038C67.0335 4.43704 66.8801 4.03705 66.5734 3.75041C66.2734 3.45709 65.8501 3.31045 65.3034 3.31049C64.8701 3.31052 64.4801 3.41721 64.1334 3.63056C63.7868 3.84392 63.5135 4.1406 63.3135 4.52062C63.1202 4.89396 63.0235 5.31397 63.0236 5.78063C63.0236 6.29397 63.1736 6.69396 63.4736 6.98061C63.7803 7.26725 64.207 7.41056 64.7537 7.41052ZM72.2429 2.69005C72.8362 2.69001 73.2962 2.84331 73.6229 3.14996C73.9563 3.44994 74.123 3.86659 74.123 4.39993C74.123 4.58659 74.103 4.78659 74.063 4.99993L73.4632 7.98997L72.7532 7.99001L73.353 4.98997C73.3864 4.80331 73.403 4.64331 73.403 4.50997C73.403 4.12997 73.2863 3.83998 73.053 3.63999C72.8263 3.43334 72.4896 3.33003 72.0429 3.33006C71.4763 3.33009 71.0096 3.48679 70.643 3.80015C70.2763 4.10684 70.0297 4.56352 69.9031 5.1702L69.3432 7.99023L68.6332 7.99028L69.6729 2.73021L70.3529 2.73017L70.183 3.57018C70.6829 2.98348 71.3696 2.6901 72.2429 2.69005ZM76.0802 5.5598C76.0735 5.60647 76.0702 5.67647 76.0702 5.7698C76.0702 6.30313 76.2203 6.70979 76.5203 6.98977C76.827 7.26975 77.2803 7.40972 77.8803 7.40969C78.227 7.40966 78.5503 7.35298 78.8503 7.23962C79.157 7.1196 79.4069 6.95626 79.6003 6.74958L79.9203 7.25956C79.6737 7.50624 79.3637 7.69959 78.9903 7.83962C78.6237 7.97297 78.2337 8.03966 77.8204 8.03969C77.0604 8.03974 76.4603 7.83978 76.0203 7.4398C75.587 7.03983 75.3703 6.49318 75.3702 5.79985C75.3702 5.21318 75.4935 4.68317 75.7401 4.20982C75.9934 3.73647 76.3401 3.36645 76.78 3.09976C77.2267 2.82639 77.7267 2.6897 78.28 2.68966C78.98 2.68962 79.5367 2.88958 79.95 3.28955C80.3634 3.68286 80.5701 4.22618 80.5702 4.91951C80.5702 5.11285 80.5468 5.32618 80.5002 5.55952L76.0802 5.5598ZM78.26 3.28966C77.7334 3.2897 77.2834 3.44639 76.9101 3.75975C76.5368 4.0731 76.2835 4.49645 76.1502 5.0298L79.9002 5.02956C79.9068 4.98289 79.9102 4.91956 79.9101 4.83956C79.9101 4.34622 79.7601 3.96623 79.4601 3.69958C79.1601 3.42627 78.76 3.28963 78.26 3.28966Z" fill="white"/>
</svg>
